<?xml version="1.0" encoding="UTF-8"?>
<svg version="1.1" viewBox="0 0 1468 2048" width="162" height="226" xmlns="http://www.w3.org/2000/svg">
<path transform="translate(734,103)" d="m0 0 5 3 8 13 12 22 12 20 16 28 10 18 15 26 12 20 20 36 17 28 8 14 8 12-1 3h-63l1 4-1 196 4 6 18 18 7 8 66 66 8 7 35 35 8 7 6 5-1-16-1-44v-187h-59l-2-1 2-6 13-22 14-24 13-23 14-24 13-23 14-24 8-14 9-16 12-22 22-38 6-8 4 1 5 6 13 24 13 22 16 28 9 15 15 27 13 23 14 24 14 25 17 28 10 19v2l-5 1h-16l-42-1v407l6 7 11 9 8 8 7 8 165 165 6 5 7 8 98 98 8 7 6 7 3 2-2 4-70 70-7 8-17 16-40 40-5 6-5 5-12 11-549 549-3 2-6-1-49-49-7-8-14-14-8-7-12-12-5-6-8-7-184-184-8-7-7-7-7-8-124-124-8-7-13-13-7-8-81-81-8-7-24-24-7-8-34-34-2-1v-2h-2l-5-6-63-63-8-7-13-13 1-4 7-7 4-5 8-7 13-12 12-13 69-69 7-8 10-10 8-7 14-14 7-8 7-7 8-7 12-12 7-8 12-12h2l2-4 6-5 7-8 17-17 6-5 7-8 24-24 8-7 16-17 9-9 8-7 6-7-1-384v-21h-23l-39-1 3-9 8-13 12-20 10-18 14-25 10-17 14-25 12-21 10-17 13-23 14-25 8-13 9-15 3-3 5 1 6 9 6 12 14 24 12 21 10 18 28 48 14 25 12 21 14 23 10 15 9 19 2 8-1 1h-59l-1 55v129l-1 44-2 18-1 3 8-6 10-9 43-43 8-7 67-67h2l2-4 11-11 4-6v-202l-47 1h-17l6-11 13-21 14-25 11-19 15-27 16-27 16-28 15-27 9-15 13-23 9-15zm77 668 2 23v715l-1 82 5-3 10-9 12-12 8-7 10-9 99-99 5-4 3-7v-518l-6-8-110-110-8-7-10-9-10-10-7-8zm-155 1-15 14-15 15-2 1v2l-4 2-58 58v2h-2v2h-2l-7 8-8 8-5 4-7 8-16 15-10 10-1 3v295l-1 218 4 9 13 12 9 9 7 8 17 16 8 8 7 8 44 44 8 7 25 25 8 7 6 4-2-40v-750l1-32zm464 308v198l1 7 8-6 39-39 4-3v-2l4-2 14-14 7-8 14-14 8-7 5-6-2-5-56-56-8-7-12-12-7-8-12-12-5-4zm-773 3-8 5-10 9-41 41-7 8-11 11-8 7-9 9-8 7 1 5 10 11 8 7 15 14 10 10 7 8 3 1v2l8 7 30 30 8 7 5 4-2-42v-125l1-35z" fill="#297497"/>
<path transform="translate(734,103)" d="m0 0 5 3 8 13 12 22 12 20 16 28 10 18 15 26 12 20 20 36 17 28 8 14 8 12-1 3h-63l1 4-1 196 4 6 3 4-4 2-3 7-2 22-1 136v30l1 12 2 6h-2l2 7 1 16v715l-1 67-1 16-7 6-6 8-6 5-2 3h-2l-2 4-11 11h-2l-1 3h-2l-2 4-21 21-8 6h-8l-10-5-13-13-8-7-4-5-2-1v-2l-4-2-3-3v-2h-2l-7-8-12-13-6-7h-3l-2-41v-750l1-25 1-7-2-1h2l2-27v-76l-1-14-1-37-1-34-2-18-3-8-7 6-6 5 2-4 11-11 4-6v-202l-47 1h-17l6-11 13-21 14-25 11-19 15-27 16-27 16-28 15-27 9-15 13-23 9-15zm-97 465 2 1-12 12h-3z" fill="#60B7D2"/>
<path transform="translate(424,206)" d="m0 0 5 1 6 9 6 12 14 24 12 21 10 18 28 48 14 25 12 21 14 23 10 15 9 19 2 8-1 1h-59l-1 55v129l-1 44-2 18-1 3 5-2-2 5-3 4h-2l-2 5-8 8-6 7h-2v2l-8 7-3 4h-2l-2 4-3 1v2h-2v2h-2l-2 4-14 14h-2v2h-2l-2 4-3 1-2 4-7 7h-2l-2 4-7 6-39 39-7 6h-2v2l-11 7-5 2-2 4-1-26-1-348v-30h-23l-39-1 3-9 8-13 12-20 10-18 14-25 10-17 14-25 12-21 10-17 13-23 14-25 8-13 9-15z" fill="#84D1EB"/>
<path transform="translate(1042,206)" d="m0 0 4 1 5 6 13 24 13 22 16 28 9 15 15 27 13 23 14 24 14 25 17 28 10 19v2l-5 1h-16l-42-1-1 404h-1l-2-8-11-6-4-5-14-11-7-6-5-4v-2h-2l-7-8-4-3v-2h-2l-7-8-2-1v-2h-2v-2l-4-2-4-5-14-14-8-6v-2l-4-2-8-7v-2l-4-2-11-12-6-5-7-8-6-8-5-4v-2h-2l-3-6-1-17-1-44v-187h-59l-2-1 2-6 13-22 14-24 13-23 14-24 13-23 14-24 8-14 9-16 12-22 22-38z" fill="#3B90B0"/>
<path transform="translate(961,919)" d="m0 0 4 2 6 4 5 4v2l4 2 5 4v2h2l5 5 11 9 7 8 9 10 7 9 5 5 9 10 8 7 5 6 5 4 4 5 8 7 2 4h2l4 4v2h2l7 8 2 4h2l7 8 3 3v2l3 1 4 5 5 5 6 7 2 1v200l1 6 12-11 34-34 2 1-44 44-3 5h-2v2l-5 5-11 9-5 5-6 5-4 5-5 5h-2v2l-6 5-5 6-8 7-13 13h-2l-2 4-4 4h-2l-2 4-15 15-2 3h-2l-2 4h-2l-2 4-5 5-13 12-3 1v2h-2v2l-8 7-15 14-5 4v-520zm216 312m-1 1m-1 1m-1 1m-2 1 2 1-2 1z" fill="#3B90B0"/>
<path transform="translate(504,924)" d="m0 0h1v295l-1 209-1 7-11-6-16-12-16-16-5-4-61-61-5-4-7-8-25-25-9-12 1-6-1-12-1-25v-125l1-35-5 1 7-11 14-15 37-37 8-9 7-6 26-26 8-7 11-11 7-8 17-17 11-7 7-3z" fill="#84D1EB"/>
<path transform="translate(817,555)" d="m0 0 5 2 13 13-3 2-5 5-2 11-1 22v26l-1 26-1 17-1 24-1 29 2 24 5 17 9 20 2 4-7-6-12-12-7-9-2-5-1-21v-40l1-121 2-18z" fill="#3B90B0"/>
<path transform="translate(651,556)" d="m0 0 3 2 3 12 1 13 1 39 1 34 1 20v69l-2 24-1 2h-2l-2 4-12 11v-3l7-19 1-8 1-23-1-20v-38l-1-9-3-26-1-24 1-17-1-14-3-7-5-1h-6l6-7z" fill="#3B90B0"/>
<path transform="translate(850,1557)" d="m0 0m-2 1 2 1-9 9-7 11-10 14h-2l-2 5-7 10-5 6-8 7-5 5-5 2-2 4-6 5-7 8-5 5h-2v2h-2v2h-2l-1 3-14 10-10 7h-7l-11-7-11-10-8-6-5-5-2-4h-2v-2l-4-2-18-18v-2l-3-1v-2h-2l-6-7-9-11-4-5v-2h-2v-3h-2l-4-8v-3l16 15 4 4h3l9 10 15 16v2h2l5 6 2 1v2l4 2 7 8 10 9 9 8 7 3h8l11-9 19-19 4-5 8-7 7-8 5-5h2l1-3 5-5 8-9 11-8 18-18 8-7z" fill="#3B90B0"/>
<path transform="translate(546,658)" d="m0 0v3l-4 4-6 11-8 12-5 5-10 11-7 8-9 10-1 2h-2l-2 4-6 7-5 4-6 7h-2l-2 4-9 9h-2l-2 4-5 5-6 7-7 6h-2l-2 4-23 23h-2l-2 4-17 17h-2v2l-5 4h-2l-2 4-14 12-8 7h-2l-1 3-6 4h-2l-1 3-15 6-16 16v-3l17-17 8-7 7-8 2-4 14-9h2v-2l11-9 34-34h2l1-3h2l1-3 5-4 5-5 7-8 5-5h2v-2l8-7 9-9 1-2h2v-2h2v-2l5-5h2l2-4 3-3h2l2-4h2v-2h2l2-4 5-5 8-9 1-2h2l2-4 5-8 12-11z" fill="#3B90B0"/>
<path transform="translate(501,683)" d="m0 0h1v14l-1 3 5-2-2 5-3 4h-2l-2 5-8 8-6 7h-2v2l-8 7-3 4h-2l-2 4-3 1v2h-2v2h-2l-2 4-14 14h-2v2h-2l-2 4-3 1-2 4-7 7h-2l-2 4-7 6-39 39-7 6h-2v2l-11 7-5 2-1 2v-12l3-4 7-4 9-7 4-2v-2l8-7 14-14h2l2-4 5-4 6-7h2v-2l8-7 6-6h2l2-4 6-5 19-19h2l2-4 3-3h2l2-4 19-19 9-12 7-17z" fill="#60B7D2"/>
<path transform="translate(349,1272)" d="m0 0h2l9 17 5 4 7 8 6 5v2l4 2 8 10 9 7v2h2l9 9v2h2l7 8 10 10v2l4 2 7 7v2l4 2v2l4 2 26 26 13 10 2 1h11l3 2v19l-11-6-16-12-16-16-5-4-61-61-5-4-7-8-25-25-9-12 1-6z" fill="#60B7D2"/>
<path transform="translate(504,924)" d="m0 0h1v12l-2 8-1 1-11 2-3 1v2l-7 4-22 22-8 7-15 15-4 2v2h-2v2l-8 7-29 29-7 8-13 13-2 3h-2v2h-2v2h-2l-2 4-6 8-4 9-3 3-1-1-1-7-5 1 7-11 14-15 37-37 8-9 7-6 26-26 8-7 11-11 7-8 17-17 11-7 7-3z" fill="#60B7D2"/>
<path transform="translate(507,917)" d="m0 0 2 1-4 5-2 6-12 6-9 7-19 19-7 8-12 12-8 7-20 20-7 6-7 8-3 1-2 4-3 3h-2l-2 4-34 34-10 13-3 5-10 8-7 6 2-4 6-11 8-11 7-10h2v-2l3-3h2l2-4h2v-2h2v-2h2v-2l8-7 13-13 3-4h2l2-4h2l2-4 12-12 6-7 8-7 16-15h2l2-4 8-7 7-8 7-6 2-3h2l2-4 6-7 5-5 8-7 12-6z" fill="#3B90B0"/>
<path transform="translate(327,1265)" d="m0 0 7 6 13 12 7 11 12 13 20 20v2l3 1 67 67 12 11 9 9 16 12 9 5 4 9-2 1-11-6-13-10-11-9v-2l-4-2-7-6-5-6-8-7-4-5-8-7-1-3-4-2v-2l-3-1-5-5-7-6v-2l-3-1v-2l-4-2-6-7-8-7-17-17-3-2v-2l-4-2-1-3h-2v-2h-2l-8-10-3-2v-2h-2l-7-10-3-4-6-9-4-5z" fill="#3B90B0"/>
<path transform="translate(154,1049)" d="m0 0h3l1 6-9 10-9 9h-2v-2l-3-1 2-4 7-8z" fill="#3C90B0"/>
</svg>
