<?xml version="1.0" encoding="UTF-8"?>
<svg version="1.1" viewBox="0 0 2048 1428" width="598" height="417" xmlns="http://www.w3.org/2000/svg">
<path transform="translate(990,145)" d="m0 0 4 4 11 20 14 24 14 25 10 16 1 3h-24v75l1 4 4 2 12 13 13 13 5 4 21 21v-92h-22l1-5 16-28 14-24 15-27 6-9 3 1 14 25 10 17 14 25 13 22v2l-5 1h-18v153l122 122-3 5-264 264-4-1-10-9-9-10-37-37-8-7-53-53v-2l-4-2-10-10v-2l-4-2-9-9-5-6-5-4-5-6-8-7-100-100v-3l8-7 114-114v-100l-1-53-22-1 2-5 14-25 24-42 10-17 2-3 4 2 14 25 14 24 13 23 8 13 1 5-1 1h-21l-1 87-1 6 8-7 15-15 8-7 25-25 2-3v-75l-23-1 1-4 10-17 14-25 6-10 20-35zm-30 253-7 7-8 7-42 42v198l46 46 8 7 4 3v-310zm59 0v309l4-2 8-8 8-7 37-37 1-2v-196l-7-8-38-38-8-7zm117 117v76l4-2 35-35-2-4-6-6h-2l-2-4-25-25zm-294 1-8 7-29 29 2 4 30 30 8 6-1-50v-26z" fill="#287194"/>
<path transform="translate(990,145)" d="m0 0 4 4 11 20 14 24 14 25 10 16 1 3h-24v75l1 3h-3l-1 55v15l1 11 2 2v304l-1 5-8 7-17 17-6 1-12-11-5-4-7-8v-2h-2v2l-2-1v-295l1-16h1l1-13v-24l-1-32-1-10-2-4 1-1v-75l-23-1 1-4 10-17 14-25 6-10 20-35z" fill="#5FB7D1"/>
<path transform="translate(1396,932)" d="m0 0h29l1 2 8 57 4 29 1 15 2-1 6-45 8-53 1-4h24l1 1 12 86 1 16 2-1 14-98 1-4h29l-1 11-5 27-13 75-9 52-1 1h-31l-8-52-4-27-2 10-9 65-1 4h-31l-2-6-9-51-12-71-6-34z" fill="#297396"/>
<path transform="translate(872,184)" d="m0 0 4 2 14 25 14 24 13 23 8 13 1 5-1 1h-21l-1 94-8 9-5 4-5 6-4 4h-2l-1 3-5 4-5 6-8 7-9 9-4 3h-2l-1 3-1-16v-83l-1-53-22-1 2-5 14-25 24-42 10-17z" fill="#84D7EE"/>
<path transform="translate(1106,184)" d="m0 0 3 1 14 25 10 17 14 25 13 22v2l-5 1h-18l-1 153-5-5-4-3v-2l-4-2-9-9-8-7-5-5v-2l-3-1-7-8-10-10v-2l-4-2-1-26v-69h-22l1-5 16-28 14-24 15-27z" fill="#3990B0"/>
<path transform="translate(446,932)" d="m0 0h54l9 2 10 5 10 9 7 10 4 13v16l-4 11-6 9-4 4 2 5 4 5 5 11 2 7v17l-4 13-6 10-6 7-11 8-12 4h-55v-164zm29 29v37h19l9-3 6-7 1-3v-13l-4-6-5-4-4-1zm1 65-1 1-1 13v29l1 1h17l8-3 7-7 3-9-1-11-4-6-7-6-10-2z" fill="#297395"/>
<path transform="translate(1088,932)" d="m0 0h57l10 3 8 4 10 9 6 8 4 9 2 13-1 13-4 11-8 11v4l6 10 4 12v59h-29l-1-15v-37l-3-9-2-4-4-2-5-2-9-1h-12l-1 70h-29v-165zm29 29-1 7v30l1 1h19l10-2 5-4 4-8v-11l-4-7-6-5-3-1z" fill="#297396"/>
<path transform="translate(1287,929)" d="m0 0h12l12 3 10 6 8 7 7 11 4 12v94l-4 13-7 10-7 7-10 6-10 3-11 1-12-2-10-5-10-8-7-10-4-9-2-11v-83l2-12 6-12 9-10 10-7 9-3zm3 29-8 4-4 5-2 4-1 6v78l3 9 4 5 9 4 8-1 6-4 4-5 2-5v-86l-6-10-5-3z" fill="#297396"/>
<path transform="translate(970,929)" d="m0 0h12l12 3 13 8 7 8 7 14 2 9 1 18h-31l-1-16-4-8-6-5-3-1h-7l-7 4-5 7-1 3v86l4 7 5 4 5 2 9-1 7-5 3-8v-16l-16-1-1-1v-27l4-1h35l9 1 1 2-1 43-2 10-4 9-6 9-9 8-9 5-15 3-13-1-11-4-9-7-8-9-6-12-2-9v-90l3-11 6-11 7-8 11-7 8-3z" fill="#2A7396"/>
<path transform="translate(697,932)" d="m0 0h88l1 1v26l-4 10-13 25-12 22-18 34-11 20h58l1 27-1 1h-91l-1-7v-18l8-17 10-19 30-56 10-19-55-1-1-1v-27z" fill="#297395"/>
<path transform="translate(1074,451)" d="m0 0 4 2v2h2v2l4 2 2 4h2v2h3l4 5 5 5 5 7 3 3 3 1 4 5 10 10v2l4 2 5 5 3 5-1 76 3-1v2l-8 7-19 19h-2l-2 4-5 4-5 6h-2v2l-8 7-4 4h-2l-2 4-3 1-1-195z" fill="#3990B0"/>
<path transform="translate(902,457)" d="m0 0h1v193l-2-3v-2l-5-1-13-12-30-30v-2l-4-2-3-3v-2l-2-1-1-50v-27h2l2-4 12-12 7-8 11-11 8-7 11-12 6-2z" fill="#83D6ED"/>
<path transform="translate(604,932)" d="m0 0h28l1 1v165h-29l-1-137v-28z" fill="#297295"/>
<path transform="translate(1018,315)" d="m0 0 5 1 5 6h-3l-1 7-1 49v12l2 8 3 4 2 3 2 4-4-2-8-8v-2l-3-1-1-11v-27l1-39z" fill="#3A91B0"/>
<path transform="translate(1033,695)" d="m0 0m-2 1 2 1-8 8-6 9-6 7-8 7-4 5-9 6-5-1-8-6v-2l-4-2-14-14-7-10 1-2 5 5v2h2v-2h2l7 8v2l3 1v2l4 2 10 9 6-1 12-12h2l2-4 7-7 5-2z" fill="#3A91B1"/>
<path transform="translate(959,315)" d="m0 0 3 3 1 15 1 39v15l-1 12h-3l-5 4 1-5 1-3v-51l-2-18v-3l-4 1 6-7z" fill="#3990B0"/>
<path transform="translate(925,348)" d="m0 0 2 1-11 11-7 10-5 5-9 10-11 11-1 2h-2v2l-8 7-4 5-7 6h-2v2l-9 7-1 2h-2v2l-9 6-12 12-1 2h-2l-2 4-4 1 6-7 20-20 1-3 9-7 16-16h2l1-3h2l1-3 5-4 5-5 7-8 5-5z" fill="#3B92B1"/>
<path transform="translate(904,451)" d="m0 0 2 1-3 5-3 3-6 4-12 13-13 12-8 8-7 8-5 5-4 5-8 6-2 1 2-4 5-8 39-39 7-6 7-8z" fill="#3990B0"/>
<path transform="translate(838,586)" d="m0 0 6 5v2h2l5 6 40 40 6 5 4 1 2 7-8-4-15-14-35-35-7-9z" fill="#3A91B1"/>
<path transform="translate(900,361)" d="m0 0 2 2 1 8-8 9-5 4-5 6-4 4h-2l-1 3-5 4-5 6-8 7-9 9-4 3h-2l-1 3 1-7 4-3h2v-2l11-11h2l2-4 4-4h2l2-4 3-1 2-4 3-1v-2l8-7 8-9z" fill="#5FB7D1"/>
<path transform="translate(845,587)" d="m0 0 4 5 27 27v2l3 1 5 5 6 7 6 5h5l1 1v7l-1-2-5-1-13-12-30-30v-2l-4-2-3-3v-2l-2-1z" fill="#5FB7D1"/>
<path transform="translate(902,457)" d="m0 0h1v9h-6l-3 1v2h-2v2l-8 7-25 25-7 8-5 8-2 3v-6l-2-1h2l2-4 12-12 7-8 11-11 8-7 11-12 6-2z" fill="#5FB7D1"/>
<path transform="translate(809,464)" d="m0 0 1 2-1 2h-2l-2 4-15 15h-2v2l-8 7-8 8-7 8-2-2z" fill="#3990B0"/>
<path transform="translate(786,487)" d="m0 0h2v2l-8 7-8 8-7 8-2-2z" fill="#3589A9"/>
<path transform="translate(837,436)" d="m0 0 2 1-12 12-1 2h-2l-2 4-4 1 6-7z" fill="#3588A9"/>
</svg>
